<svg width="78" height="69" viewBox="0 0 78 69" fill="none" xmlns="http://www.w3.org/2000/svg">
<path fill-rule="evenodd" clip-rule="evenodd" d="M39.0124 0L47.722 15.2866C45.9598 15.8454 44.2907 16.4582 42.7971 17.0369C39.5018 18.3139 34.4974 17.6041 29.4089 16.8824L29.3947 16.8804L39.0124 0ZM27.9704 31.8105C33.2647 28.0011 45.5537 26.9952 54.0406 26.3767L64.8437 45.3378C63.7222 44.8271 62.6609 44.4356 61.7052 44.1975C58.1365 43.3085 53.3406 43.9887 48.6172 44.6586C43.5287 45.3803 38.5243 46.09 35.229 44.8131C29.6255 42.6418 21.5513 39.9917 15.3639 41.5065L19.4035 34.4165C23.3758 33.6916 26.6512 32.7597 27.9704 31.8105ZM6.81271 56.5151L0.644811 67.3407C0.264985 68.0073 0.746419 68.8357 1.51368 68.8357H76.5111C77.2783 68.8357 77.7598 68.0073 77.3799 67.3407L75.2225 63.5541C67.0197 63.9053 53.6983 61.8098 50.0557 59.5866C45.4152 56.7545 30.9928 54.6621 22.5204 54.0466C17.8762 53.7091 11.641 55.0864 6.81271 56.5151Z" fill="black"/>
</svg>
