<svg width="194" height="72" viewBox="0 0 194 72" fill="none" xmlns="http://www.w3.org/2000/svg">
<path fill-rule="evenodd" clip-rule="evenodd" d="M3.96 29.344C3.96 30.496 4.352 31.072 5.136 31.072H15.6C18.048 31.072 20.048 30.824 21.6 30.328C23.152 29.832 24.296 28.968 25.032 27.736C25.768 26.488 26.136 24.736 26.136 22.48V21.208C26.136 19 25.768 17.28 25.032 16.048C24.312 14.8 23.208 13.912 21.72 13.384C22.52 12.808 23.12 12.056 23.52 11.128C23.92 10.2 24.12 9.07199 24.12 7.744C24.12 4.992 23.264 3.08 21.552 2.00799C19.856 0.935994 17.248 0.399994 13.728 0.399994H5.136C4.352 0.399994 3.96 0.967994 3.96 2.10399V29.344ZM15.6 28.552H6.48V15.184H15.816C17.32 15.184 18.52 15.24 19.416 15.352C20.328 15.464 21.12 15.736 21.792 16.168C22.416 16.584 22.872 17.16 23.16 17.896C23.464 18.632 23.616 19.752 23.616 21.256V22.48C23.616 23.744 23.496 24.784 23.256 25.6C23.016 26.416 22.536 27.056 21.816 27.52C21.112 27.984 20.216 28.272 19.128 28.384C18.04 28.496 16.864 28.552 15.6 28.552ZM13.728 12.664H6.48V2.96799H13.728C15.68 2.96799 17.224 3.10399 18.36 3.376C19.512 3.63199 20.336 4.11199 20.832 4.81599C21.344 5.50399 21.6 6.49599 21.6 7.79199C21.6 9.12 21.344 10.136 20.832 10.84C20.336 11.528 19.512 12.008 18.36 12.28C17.208 12.536 15.664 12.664 13.728 12.664ZM36.1984 30.352C37.7504 30.832 39.7584 31.072 42.2224 31.072H49.2304C50.5584 31.072 51.5664 30.848 52.2544 30.4C52.9424 29.936 53.4144 29.296 53.6704 28.48C53.9264 27.648 54.0544 26.704 54.0544 25.648C54.0544 25.12 53.9344 24.712 53.6944 24.424C53.4544 24.136 53.1504 23.992 52.7824 23.992C52.4464 23.992 52.1504 24.144 51.8944 24.448C51.6544 24.736 51.5344 25.176 51.5344 25.768C51.5344 26.76 51.3424 27.472 50.9584 27.904C50.5904 28.336 49.9024 28.552 48.8944 28.552H42.2224C40.1264 28.552 38.4864 28.408 37.3024 28.12C36.1344 27.816 35.3184 27.232 34.8544 26.368C34.3904 25.504 34.1584 24.224 34.1584 22.528V19.24H54.1744V17.296C54.1744 15.072 53.8064 13.344 53.0704 12.112C52.3344 10.88 51.1824 10.024 49.6144 9.54399C48.0624 9.04799 46.0624 8.79999 43.6144 8.79999H42.2224C39.7584 8.79999 37.7504 9.04799 36.1984 9.54399C34.6464 10.024 33.4944 10.88 32.7424 12.112C32.0064 13.344 31.6384 15.072 31.6384 17.296V22.552C31.6384 24.792 32.0064 26.528 32.7424 27.76C33.4944 28.992 34.6464 29.856 36.1984 30.352ZM51.6304 16.72H34.1584C34.1904 14.592 34.7184 13.16 35.7424 12.424C36.3504 11.992 37.1824 11.704 38.2384 11.56C39.2944 11.4 40.6224 11.32 42.2224 11.32H43.6144C45.2304 11.32 46.5744 11.408 47.6464 11.584C48.7344 11.744 49.5744 12.072 50.1664 12.568C51.1104 13.32 51.5984 14.704 51.6304 16.72ZM64.8491 30.352C66.4011 30.832 68.4011 31.072 70.8491 31.072H72.2891C74.7371 31.072 76.7371 30.832 78.2891 30.352C79.8571 29.856 81.0091 28.992 81.7451 27.76C82.4811 26.528 82.8491 24.792 82.8491 22.552V17.296C82.8491 15.088 82.4811 13.368 81.7451 12.136C81.0251 10.888 79.8971 10.024 78.3611 9.54399C76.8411 9.04799 74.8891 8.79999 72.5051 8.79999H62.8811C62.8811 7.472 63.1291 6.432 63.6251 5.67999C64.1211 4.928 64.8731 4.368 65.8811 4C66.8891 3.632 68.1611 3.352 69.6971 3.15999C70.1291 3.11199 70.5371 3.07999 70.9211 3.064C71.3051 3.032 71.7851 3.008 72.3611 2.99199C72.9371 2.96 73.7211 2.944 74.7131 2.944C75.7211 2.944 77.0411 2.936 78.6731 2.91999C79.3131 2.91999 79.7691 2.81599 80.0411 2.60799C80.3291 2.39999 80.4731 2.09599 80.4731 1.69599C80.4731 0.831994 79.8891 0.399994 78.7211 0.399994C77.1691 0.399994 75.7371 0.415995 74.4251 0.447996C73.1291 0.479996 72.0091 0.527995 71.0651 0.591994C68.3611 0.719995 66.2251 1.11199 64.6571 1.76799C63.0891 2.40799 61.9691 3.32799 61.2971 4.528C60.6411 5.728 60.3131 7.224 60.3131 9.016V22.528C60.3131 24.768 60.6811 26.512 61.4171 27.76C62.1531 28.992 63.2971 29.856 64.8491 30.352ZM72.2891 28.552H70.8491C68.7691 28.552 67.1451 28.408 65.9771 28.12C64.8091 27.816 63.9931 27.232 63.5291 26.368C63.0651 25.504 62.8331 24.224 62.8331 22.528V11.32H72.5051C74.4571 11.32 76.0011 11.456 77.1371 11.728C78.2891 12 79.1051 12.56 79.5851 13.408C80.0811 14.256 80.3291 15.568 80.3291 17.344V22.528C80.3291 24.208 80.0971 25.488 79.6331 26.368C79.1691 27.232 78.3531 27.816 77.1851 28.12C76.0171 28.408 74.3851 28.552 72.2891 28.552ZM0 37C0 34.7908 1.79086 33 4 33H190C192.209 33 194 34.7908 194 37V68C194 70.2091 192.209 72 190 72H4C1.79086 72 0 70.2091 0 68V37ZM5.232 66.408C4.384 66.408 3.96 65.856 3.96 64.752V36.768C3.96 35.632 4.352 35.064 5.136 35.064C5.68 35.064 6.16 35.368 6.576 35.976L15.528 49.32L24.528 35.976C24.944 35.368 25.416 35.064 25.944 35.064C26.744 35.064 27.144 35.632 27.144 36.768V64.752C27.144 65.856 26.728 66.408 25.896 66.408C25.048 66.408 24.624 65.84 24.624 64.704V39.888L16.608 51.96C16.416 52.264 16.24 52.464 16.08 52.56C15.936 52.64 15.768 52.68 15.576 52.68C15.4 52.68 15.224 52.64 15.048 52.56C14.888 52.464 14.712 52.264 14.52 51.96L6.48 39.888V64.704C6.48 65.84 6.064 66.408 5.232 66.408ZM52.845 66.408C52.429 66.408 52.141 66.256 51.981 65.952C51.821 65.648 51.725 65.128 51.693 64.392C51.6832 63.9331 51.6735 63.367 51.6637 62.6936C50.8268 63.7796 49.7966 64.5937 48.573 65.136C47.165 65.76 45.493 66.072 43.557 66.072H39.093C37.573 66.072 36.333 65.544 35.373 64.488C34.429 63.432 33.957 61.8 33.957 59.592C33.957 57.832 34.253 56.44 34.845 55.416C35.437 54.392 36.237 53.624 37.245 53.112C38.269 52.6 39.405 52.264 40.653 52.104C41.917 51.944 43.213 51.864 44.541 51.864H51.597V49.08C51.597 48.056 51.405 47.344 51.021 46.944C50.653 46.528 49.965 46.32 48.957 46.32H42.189C40.829 46.32 39.725 46.424 38.877 46.632C38.045 46.824 37.437 47.128 37.053 47.544C36.669 47.96 36.477 48.496 36.477 49.152C36.461 49.664 36.373 50.056 36.213 50.328C36.069 50.6 35.733 50.736 35.205 50.736C34.373 50.736 33.957 50.136 33.957 48.936C33.957 47.224 34.661 45.944 36.069 45.096C37.493 44.232 39.421 43.8 41.853 43.8H49.293C51.133 43.8 52.397 44.248 53.085 45.144C53.773 46.024 54.117 47.608 54.117 49.896V64.752C54.117 65.856 53.693 66.408 52.845 66.408ZM39.141 63.6H43.557C46.501 63.6 48.589 62.768 49.821 61.104C50.9823 59.5407 51.5756 57.2847 51.6008 54.336H44.541C42.765 54.336 41.277 54.456 40.077 54.696C38.877 54.92 37.973 55.392 37.365 56.112C36.773 56.832 36.477 57.92 36.477 59.376C36.477 60.88 36.741 61.96 37.269 62.616C37.813 63.272 38.437 63.6 39.141 63.6ZM77.7968 46.32H66.0608C65.0527 46.32 64.3568 46.528 63.9728 46.944C63.6048 47.36 63.4207 48.096 63.4207 49.152V64.752C63.4207 65.856 63.0047 66.408 62.1727 66.408C61.3247 66.408 60.9007 65.856 60.9007 64.752V49.896C60.9007 47.608 61.2448 46.024 61.9328 45.144C62.6367 44.248 63.9007 43.8 65.7247 43.8H77.7968C78.9167 43.8 79.4768 44.216 79.4768 45.048C79.4768 45.896 78.9167 46.32 77.7968 46.32ZM84.9551 66.408C84.1231 66.408 83.7071 65.856 83.7071 64.752V45.168C83.7071 44.032 84.0911 43.464 84.8591 43.464C85.7711 43.464 86.2271 44.032 86.2271 45.168V53.016H102.883V45.168C102.883 44.032 103.299 43.464 104.131 43.464C104.979 43.464 105.403 44.032 105.403 45.168V64.752C105.403 65.856 104.979 66.408 104.131 66.408C103.299 66.408 102.883 65.856 102.883 64.752V55.536H86.2271V64.752C86.2271 65.856 85.8031 66.408 84.9551 66.408ZM130.611 66.408C130.195 66.408 129.907 66.256 129.747 65.952C129.587 65.648 129.491 65.128 129.459 64.392C129.449 63.9331 129.439 63.367 129.429 62.6936C128.592 63.7796 127.562 64.5937 126.339 65.136C124.931 65.76 123.259 66.072 121.323 66.072H116.859C115.339 66.072 114.099 65.544 113.139 64.488C112.195 63.432 111.723 61.8 111.723 59.592C111.723 57.832 112.019 56.44 112.611 55.416C113.203 54.392 114.003 53.624 115.011 53.112C116.035 52.6 117.171 52.264 118.419 52.104C119.683 51.944 120.979 51.864 122.307 51.864H129.363V49.08C129.363 48.056 129.171 47.344 128.787 46.944C128.419 46.528 127.731 46.32 126.723 46.32H119.955C118.595 46.32 117.491 46.424 116.643 46.632C115.811 46.824 115.203 47.128 114.819 47.544C114.435 47.96 114.243 48.496 114.243 49.152C114.227 49.664 114.139 50.056 113.979 50.328C113.835 50.6 113.499 50.736 112.971 50.736C112.139 50.736 111.723 50.136 111.723 48.936C111.723 47.224 112.427 45.944 113.835 45.096C115.259 44.232 117.187 43.8 119.619 43.8H127.059C128.899 43.8 130.163 44.248 130.851 45.144C131.539 46.024 131.883 47.608 131.883 49.896V64.752C131.883 65.856 131.459 66.408 130.611 66.408ZM116.907 63.6H121.323C124.267 63.6 126.355 62.768 127.587 61.104C128.748 59.5407 129.341 57.2847 129.366 54.336H122.307C120.531 54.336 119.043 54.456 117.843 54.696C116.643 54.92 115.739 55.392 115.131 56.112C114.539 56.832 114.243 57.92 114.243 59.376C114.243 60.88 114.507 61.96 115.035 62.616C115.579 63.272 116.203 63.6 116.907 63.6ZM146.154 66.408C145.274 66.408 144.834 65.904 144.834 64.896V46.32H137.538C136.466 46.32 135.93 45.896 135.93 45.048C135.93 44.216 136.466 43.8 137.538 43.8H154.746C155.802 43.8 156.33 44.216 156.33 45.048C156.33 45.896 155.802 46.32 154.746 46.32H147.474V64.896C147.474 65.376 147.354 65.744 147.114 66C146.89 66.272 146.57 66.408 146.154 66.408Z" fill="black"/>
</svg>
